<svg width="517" height="316" viewBox="0 0 517 316" fill="none" xmlns="http://www.w3.org/2000/svg">
<g clip-path="url(#clip0_1214_39)">
<rect width="517" height="316" fill="#A3A3AF"/>
<g filter="url(#filter0_d_1214_39)">
<path d="M64.5 207.024C129.5 202.524 163.189 197.031 186.5 169.524C211.5 140.024 201.5 80.0239 160 78.4342C134.499 77.4574 121 78.4339 107 78.4339C93 78.4339 83 105.434 114.5 105.934C146 106.434 150.439 110.743 155 113.023C162 116.523 170 134.023 158 151.523C148.4 165.523 91.6667 173.356 64.5 175.523" stroke="#9D0410" stroke-width="23"/>
<path d="M75.5 175.024C75.5 181.157 71.0203 186.524 65 186.524C58.8391 186.524 53 182.02 53 176.024C53 169.949 58.4249 164.524 64.5 164.524C70.6048 164.524 75.5 168.978 75.5 175.024Z" fill="#9D0410" stroke="#9D0410"/>
<path d="M75 206.524C75 212.657 70.5203 218.024 64.5 218.024C58.3391 218.024 52.5 213.52 52.5 207.524C52.5 201.449 57.9249 196.024 64 196.024C70.1048 196.024 75 200.478 75 206.524Z" fill="#9D0410" stroke="#9D0410"/>
</g>
<g filter="url(#filter1_d_1214_39)">
<path d="M142.146 37.1885C79.1459 38.1885 59.6456 48.6884 45.1457 72.6882C40.0817 81.07 37.4745 93.927 42.1885 108.751C42.7837 110.622 43.7472 112.35 44.9681 113.889C52.0177 122.772 65.8986 136.652 106.146 135.188" stroke="#9D0410" stroke-width="20"/>
<path d="M114 135.202C114 137.919 113.505 140.269 112.036 141.943C110.578 143.604 108.067 144.702 103.793 144.702C99.4476 144.702 95.7927 140.528 95.7927 135.202C95.7927 129.876 99.4476 125.702 103.793 125.702C108.067 125.702 110.578 126.799 112.036 128.46C113.505 130.134 114 132.485 114 135.202Z" fill="#9D0410" stroke="#9D0410"/>
<path d="M150.707 36.9926C150.603 40.4965 150.17 43.0772 148.83 44.6792C147.529 46.2347 145.248 46.9963 141.058 46.5034C136.615 45.9806 132.5 42.2371 132.5 37C132.5 31.674 136.155 27.5 140.5 27.5C144.774 27.5 147.285 28.5978 148.743 30.2588C150.211 31.9309 150.706 34.2786 150.707 36.9926Z" fill="#9D0410" stroke="#9D0410"/>
</g>
<path d="M51.9373 258.9C51.9373 256.9 52.4206 255.117 53.3873 253.55C54.3873 251.95 55.7206 250.683 57.3873 249.75C59.054 248.817 60.8873 248.35 62.8873 248.35C64.8873 248.35 66.3706 248.683 67.3373 249.35C68.3373 249.983 68.7206 250.75 68.4873 251.65C68.3873 252.117 68.1873 252.483 67.8873 252.75C67.6206 252.983 67.304 253.133 66.9373 253.2C66.5706 253.267 66.1706 253.25 65.7373 253.15C63.604 252.717 61.6873 252.683 59.9873 253.05C58.2873 253.417 56.9373 254.1 55.9373 255.1C54.9706 256.1 54.4873 257.367 54.4873 258.9H51.9373ZM51.9873 276C51.1873 276 50.5706 275.8 50.1373 275.4C49.704 274.967 49.4873 274.333 49.4873 273.5V251.15C49.4873 250.35 49.704 249.733 50.1373 249.3C50.5706 248.867 51.1873 248.65 51.9873 248.65C52.8206 248.65 53.4373 248.867 53.8373 249.3C54.2706 249.7 54.4873 250.317 54.4873 251.15V273.5C54.4873 274.3 54.2706 274.917 53.8373 275.35C53.4373 275.783 52.8206 276 51.9873 276ZM94.6518 276.2C91.8851 276.2 89.4184 275.617 87.2518 274.45C85.1184 273.25 83.4351 271.617 82.2018 269.55C81.0018 267.45 80.4018 265.05 80.4018 262.35C80.4018 259.617 80.9684 257.217 82.1018 255.15C83.2684 253.05 84.8684 251.417 86.9018 250.25C88.9351 249.05 91.2684 248.45 93.9018 248.45C96.5018 248.45 98.7351 249.033 100.602 250.2C102.468 251.333 103.885 252.917 104.852 254.95C105.852 256.95 106.352 259.267 106.352 261.9C106.352 262.533 106.135 263.067 105.702 263.5C105.268 263.9 104.718 264.1 104.052 264.1H83.9018V260.1H103.902L101.852 261.5C101.818 259.833 101.485 258.35 100.852 257.05C100.218 255.717 99.3184 254.667 98.1518 253.9C96.9851 253.133 95.5684 252.75 93.9018 252.75C92.0018 252.75 90.3684 253.167 89.0018 254C87.6684 254.833 86.6518 255.983 85.9518 257.45C85.2518 258.883 84.9018 260.517 84.9018 262.35C84.9018 264.183 85.3184 265.817 86.1518 267.25C86.9851 268.683 88.1351 269.817 89.6018 270.65C91.0684 271.483 92.7518 271.9 94.6518 271.9C95.6851 271.9 96.7351 271.717 97.8018 271.35C98.9018 270.95 99.7851 270.5 100.452 270C100.952 269.633 101.485 269.45 102.052 269.45C102.652 269.417 103.168 269.583 103.602 269.95C104.168 270.45 104.468 271 104.502 271.6C104.535 272.2 104.268 272.717 103.702 273.15C102.568 274.05 101.152 274.783 99.4518 275.35C97.7851 275.917 96.1851 276.2 94.6518 276.2ZM145.956 276.05C145.223 276.05 144.606 275.817 144.106 275.35C143.64 274.85 143.406 274.233 143.406 273.5V261.2C143.406 259.3 143.056 257.75 142.356 256.55C141.656 255.35 140.706 254.467 139.506 253.9C138.34 253.3 136.99 253 135.456 253C134.056 253 132.79 253.283 131.656 253.85C130.523 254.417 129.623 255.183 128.956 256.15C128.29 257.083 127.956 258.167 127.956 259.4H124.806C124.806 257.3 125.306 255.433 126.306 253.8C127.34 252.133 128.74 250.817 130.506 249.85C132.273 248.883 134.256 248.4 136.456 248.4C138.756 248.4 140.806 248.9 142.606 249.9C144.44 250.867 145.873 252.3 146.906 254.2C147.973 256.1 148.506 258.433 148.506 261.2V273.5C148.506 274.233 148.256 274.85 147.756 275.35C147.29 275.817 146.69 276.05 145.956 276.05ZM125.406 276.05C124.673 276.05 124.056 275.817 123.556 275.35C123.09 274.85 122.856 274.233 122.856 273.5V251.2C122.856 250.433 123.09 249.817 123.556 249.35C124.056 248.883 124.673 248.65 125.406 248.65C126.173 248.65 126.79 248.883 127.256 249.35C127.723 249.817 127.956 250.433 127.956 251.2V273.5C127.956 274.233 127.723 274.85 127.256 275.35C126.79 275.817 126.173 276.05 125.406 276.05ZM179.338 276.2C176.738 276.2 174.388 275.6 172.288 274.4C170.222 273.167 168.572 271.5 167.338 269.4C166.138 267.3 165.538 264.933 165.538 262.3C165.538 259.667 166.088 257.317 167.188 255.25C168.322 253.15 169.855 251.5 171.788 250.3C173.722 249.067 175.905 248.45 178.338 248.45C180.305 248.45 182.122 248.867 183.788 249.7C185.455 250.5 186.855 251.6 187.988 253V239.5C187.988 238.733 188.222 238.117 188.688 237.65C189.188 237.183 189.805 236.95 190.538 236.95C191.305 236.95 191.922 237.183 192.388 237.65C192.855 238.117 193.088 238.733 193.088 239.5V262.3C193.088 264.933 192.472 267.3 191.238 269.4C190.038 271.5 188.405 273.167 186.338 274.4C184.272 275.6 181.938 276.2 179.338 276.2ZM179.338 271.7C181.038 271.7 182.555 271.3 183.888 270.5C185.222 269.667 186.272 268.533 187.038 267.1C187.805 265.667 188.188 264.067 188.188 262.3C188.188 260.5 187.805 258.9 187.038 257.5C186.272 256.1 185.222 255 183.888 254.2C182.555 253.367 181.038 252.95 179.338 252.95C177.672 252.95 176.155 253.367 174.788 254.2C173.455 255 172.388 256.1 171.588 257.5C170.822 258.9 170.438 260.5 170.438 262.3C170.438 264.067 170.822 265.667 171.588 267.1C172.388 268.533 173.455 269.667 174.788 270.5C176.155 271.3 177.672 271.7 179.338 271.7ZM222.045 276.2C219.711 276.2 217.545 275.85 215.545 275.15C213.578 274.417 212.045 273.5 210.945 272.4C210.445 271.867 210.228 271.267 210.295 270.6C210.395 269.9 210.728 269.333 211.295 268.9C211.961 268.367 212.611 268.15 213.245 268.25C213.911 268.317 214.478 268.6 214.945 269.1C215.511 269.733 216.411 270.333 217.645 270.9C218.911 271.433 220.311 271.7 221.845 271.7C223.778 271.7 225.245 271.383 226.245 270.75C227.278 270.117 227.811 269.3 227.845 268.3C227.878 267.3 227.395 266.433 226.395 265.7C225.428 264.967 223.645 264.367 221.045 263.9C217.678 263.233 215.228 262.233 213.695 260.9C212.195 259.567 211.445 257.933 211.445 256C211.445 254.3 211.945 252.9 212.945 251.8C213.945 250.667 215.228 249.833 216.795 249.3C218.361 248.733 219.995 248.45 221.695 248.45C223.895 248.45 225.845 248.8 227.545 249.5C229.245 250.2 230.595 251.167 231.595 252.4C232.061 252.933 232.278 253.5 232.245 254.1C232.211 254.667 231.928 255.15 231.395 255.55C230.861 255.917 230.228 256.033 229.495 255.9C228.761 255.767 228.145 255.467 227.645 255C226.811 254.2 225.911 253.65 224.945 253.35C223.978 253.05 222.861 252.9 221.595 252.9C220.128 252.9 218.878 253.15 217.845 253.65C216.845 254.15 216.345 254.883 216.345 255.85C216.345 256.45 216.495 257 216.795 257.5C217.128 257.967 217.761 258.4 218.695 258.8C219.628 259.167 220.995 259.533 222.795 259.9C225.295 260.4 227.261 261.033 228.695 261.8C230.161 262.567 231.211 263.467 231.845 264.5C232.478 265.5 232.795 266.667 232.795 268C232.795 269.533 232.378 270.917 231.545 272.15C230.745 273.383 229.545 274.367 227.945 275.1C226.378 275.833 224.411 276.2 222.045 276.2ZM251.843 275.05L248.443 272.05L265.443 249.6L268.793 252.6L251.843 275.05ZM250.343 276C248.776 276 247.993 275.217 247.993 273.65C247.993 272.083 248.776 271.3 250.343 271.3H267.393C268.96 271.3 269.743 272.083 269.743 273.65C269.743 275.217 268.96 276 267.393 276H250.343ZM249.843 253.35C248.276 253.35 247.493 252.567 247.493 251C247.493 249.433 248.276 248.65 249.843 248.65H266.893C268.46 248.65 269.243 249.433 269.243 251C269.243 252.567 268.46 253.35 266.893 253.35H249.843ZM298.119 276.2C295.352 276.2 292.885 275.617 290.719 274.45C288.585 273.25 286.902 271.617 285.669 269.55C284.469 267.45 283.869 265.05 283.869 262.35C283.869 259.617 284.435 257.217 285.569 255.15C286.735 253.05 288.335 251.417 290.369 250.25C292.402 249.05 294.735 248.45 297.369 248.45C299.969 248.45 302.202 249.033 304.069 250.2C305.935 251.333 307.352 252.917 308.319 254.95C309.319 256.95 309.819 259.267 309.819 261.9C309.819 262.533 309.602 263.067 309.169 263.5C308.735 263.9 308.185 264.1 307.519 264.1H287.369V260.1H307.369L305.319 261.5C305.285 259.833 304.952 258.35 304.319 257.05C303.685 255.717 302.785 254.667 301.619 253.9C300.452 253.133 299.035 252.75 297.369 252.75C295.469 252.75 293.835 253.167 292.469 254C291.135 254.833 290.119 255.983 289.419 257.45C288.719 258.883 288.369 260.517 288.369 262.35C288.369 264.183 288.785 265.817 289.619 267.25C290.452 268.683 291.602 269.817 293.069 270.65C294.535 271.483 296.219 271.9 298.119 271.9C299.152 271.9 300.202 271.717 301.269 271.35C302.369 270.95 303.252 270.5 303.919 270C304.419 269.633 304.952 269.45 305.519 269.45C306.119 269.417 306.635 269.583 307.069 269.95C307.635 270.45 307.935 271 307.969 271.6C308.002 272.2 307.735 272.717 307.169 273.15C306.035 274.05 304.619 274.783 302.919 275.35C301.252 275.917 299.652 276.2 298.119 276.2ZM328.773 258.9C328.773 256.9 329.257 255.117 330.223 253.55C331.223 251.95 332.557 250.683 334.223 249.75C335.89 248.817 337.723 248.35 339.723 248.35C341.723 248.35 343.207 248.683 344.173 249.35C345.173 249.983 345.557 250.75 345.323 251.65C345.223 252.117 345.023 252.483 344.723 252.75C344.457 252.983 344.14 253.133 343.773 253.2C343.407 253.267 343.007 253.25 342.573 253.15C340.44 252.717 338.523 252.683 336.823 253.05C335.123 253.417 333.773 254.1 332.773 255.1C331.807 256.1 331.323 257.367 331.323 258.9H328.773ZM328.823 276C328.023 276 327.407 275.8 326.973 275.4C326.54 274.967 326.323 274.333 326.323 273.5V251.15C326.323 250.35 326.54 249.733 326.973 249.3C327.407 248.867 328.023 248.65 328.823 248.65C329.657 248.65 330.273 248.867 330.673 249.3C331.107 249.7 331.323 250.317 331.323 251.15V273.5C331.323 274.3 331.107 274.917 330.673 275.35C330.273 275.783 329.657 276 328.823 276ZM363.19 266.05C362.456 266.05 361.84 265.817 361.34 265.35C360.873 264.85 360.64 264.233 360.64 263.5V239.5C360.64 238.733 360.873 238.117 361.34 237.65C361.84 237.183 362.456 236.95 363.19 236.95C363.956 236.95 364.573 237.183 365.04 237.65C365.506 238.117 365.74 238.733 365.74 239.5V263.5C365.74 264.233 365.506 264.85 365.04 265.35C364.573 265.817 363.956 266.05 363.19 266.05ZM383.74 276.05C383.006 276.05 382.39 275.817 381.89 275.35C381.423 274.85 381.19 274.233 381.19 273.5V261.2C381.19 259.3 380.84 257.75 380.14 256.55C379.44 255.35 378.49 254.467 377.29 253.9C376.123 253.3 374.773 253 373.24 253C371.84 253 370.573 253.283 369.44 253.85C368.306 254.417 367.406 255.183 366.74 256.15C366.073 257.083 365.74 258.167 365.74 259.4H362.59C362.59 257.3 363.09 255.433 364.09 253.8C365.123 252.133 366.523 250.817 368.29 249.85C370.056 248.883 372.04 248.4 374.24 248.4C376.54 248.4 378.59 248.9 380.39 249.9C382.223 250.867 383.656 252.3 384.69 254.2C385.756 256.1 386.29 258.433 386.29 261.2V273.5C386.29 274.233 386.04 274.85 385.54 275.35C385.073 275.817 384.473 276.05 383.74 276.05ZM363.19 276.05C362.456 276.05 361.84 275.817 361.34 275.35C360.873 274.85 360.64 274.233 360.64 273.5V251.2C360.64 250.433 360.873 249.817 361.34 249.35C361.84 248.883 362.456 248.65 363.19 248.65C363.956 248.65 364.573 248.883 365.04 249.35C365.506 249.817 365.74 250.433 365.74 251.2V273.5C365.74 274.233 365.506 274.85 365.04 275.35C364.573 275.817 363.956 276.05 363.19 276.05ZM416.171 276.2C413.737 276.2 411.554 275.6 409.621 274.4C407.687 273.167 406.154 271.517 405.021 269.45C403.921 267.35 403.371 264.983 403.371 262.35C403.371 259.717 403.971 257.35 405.171 255.25C406.404 253.15 408.054 251.5 410.121 250.3C412.221 249.067 414.571 248.45 417.171 248.45C419.771 248.45 422.104 249.067 424.171 250.3C426.237 251.5 427.871 253.15 429.071 255.25C430.304 257.35 430.921 259.717 430.921 262.35H428.971C428.971 264.983 428.404 267.35 427.271 269.45C426.171 271.517 424.654 273.167 422.721 274.4C420.787 275.6 418.604 276.2 416.171 276.2ZM417.171 271.7C418.871 271.7 420.387 271.3 421.721 270.5C423.054 269.667 424.104 268.55 424.871 267.15C425.637 265.717 426.021 264.117 426.021 262.35C426.021 260.55 425.637 258.95 424.871 257.55C424.104 256.117 423.054 255 421.721 254.2C420.387 253.367 418.871 252.95 417.171 252.95C415.504 252.95 413.987 253.367 412.621 254.2C411.287 255 410.221 256.117 409.421 257.55C408.654 258.95 408.271 260.55 408.271 262.35C408.271 264.117 408.654 265.717 409.421 267.15C410.221 268.55 411.287 269.667 412.621 270.5C413.987 271.3 415.504 271.7 417.171 271.7ZM428.371 276.05C427.637 276.05 427.021 275.817 426.521 275.35C426.054 274.85 425.821 274.233 425.821 273.5V265.85L426.771 260.55L430.921 262.35V273.5C430.921 274.233 430.671 274.85 430.171 275.35C429.704 275.817 429.104 276.05 428.371 276.05ZM417.371 244.35C416.637 244.35 416.021 244.117 415.521 243.65C415.054 243.15 414.821 242.533 414.821 241.8C414.821 241.1 415.021 240.533 415.421 240.1L420.321 235.2C420.821 234.7 421.421 234.45 422.121 234.45C422.887 234.45 423.504 234.7 423.971 235.2C424.437 235.7 424.671 236.317 424.671 237.05C424.671 237.383 424.621 237.7 424.521 238C424.421 238.3 424.237 238.567 423.971 238.8L419.121 243.65C418.654 244.117 418.071 244.35 417.371 244.35ZM451.111 275.05L447.711 272.05L464.711 249.6L468.061 252.6L451.111 275.05ZM449.611 276C448.044 276 447.261 275.217 447.261 273.65C447.261 272.083 448.044 271.3 449.611 271.3H466.661C468.227 271.3 469.011 272.083 469.011 273.65C469.011 275.217 468.227 276 466.661 276H449.611ZM449.111 253.35C447.544 253.35 446.761 252.567 446.761 251C446.761 249.433 447.544 248.65 449.111 248.65H466.161C467.727 248.65 468.511 249.433 468.511 251C468.511 252.567 467.727 253.35 466.161 253.35H449.111Z" fill="white"/>
<path d="M223.275 203C222.248 203 221.385 202.65 220.685 201.95C219.985 201.25 219.635 200.387 219.635 199.36V151.97C219.635 150.897 219.985 150.033 220.685 149.38C221.385 148.68 222.248 148.33 223.275 148.33C224.348 148.33 225.211 148.68 225.865 149.38C226.565 150.033 226.915 150.897 226.915 151.97V199.36C226.915 200.387 226.565 201.25 225.865 201.95C225.211 202.65 224.348 203 223.275 203ZM244.535 203C243.508 203 242.645 202.65 241.945 201.95C241.245 201.25 240.895 200.387 240.895 199.36V151.97C240.895 150.897 241.245 150.033 241.945 149.38C242.645 148.68 243.508 148.33 244.535 148.33H257.135C260.635 148.33 263.738 149.077 266.445 150.57C269.151 152.017 271.251 154.023 272.745 156.59C274.285 159.157 275.055 162.143 275.055 165.55C275.055 168.723 274.285 171.547 272.745 174.02C271.251 176.493 269.151 178.43 266.445 179.83C263.738 181.23 260.635 181.93 257.135 181.93H248.175V199.36C248.175 200.387 247.825 201.25 247.125 201.95C246.471 202.65 245.608 203 244.535 203ZM273.585 203C272.931 203 272.325 202.86 271.765 202.58C271.251 202.3 270.808 201.857 270.435 201.25L257.835 180.95L264.905 178.92L276.385 197.4C277.225 198.753 277.341 200.037 276.735 201.25C276.128 202.417 275.078 203 273.585 203ZM248.175 175.21H257.135C259.281 175.21 261.171 174.813 262.805 174.02C264.438 173.18 265.721 172.037 266.655 170.59C267.588 169.097 268.055 167.417 268.055 165.55C268.055 163.497 267.588 161.677 266.655 160.09C265.721 158.503 264.438 157.267 262.805 156.38C261.171 155.493 259.281 155.05 257.135 155.05H248.175V175.21ZM310.393 203.7C306.286 203.7 302.53 203.023 299.123 201.67C295.716 200.27 292.776 198.333 290.303 195.86C287.876 193.34 285.986 190.377 284.633 186.97C283.28 183.517 282.603 179.737 282.603 175.63C282.603 171.523 283.28 167.767 284.633 164.36C285.986 160.953 287.876 158.013 290.303 155.54C292.776 153.02 295.716 151.083 299.123 149.73C302.53 148.33 306.286 147.63 310.393 147.63C314.5 147.63 318.233 148.33 321.593 149.73C325 151.083 327.94 153.02 330.413 155.54C332.886 158.013 334.8 160.953 336.153 164.36C337.506 167.767 338.183 171.523 338.183 175.63C338.183 179.737 337.506 183.517 336.153 186.97C334.8 190.377 332.886 193.34 330.413 195.86C327.94 198.333 325 200.27 321.593 201.67C318.233 203.023 314.5 203.7 310.393 203.7ZM310.393 197.12C313.426 197.12 316.203 196.583 318.723 195.51C321.29 194.39 323.506 192.873 325.373 190.96C327.24 189 328.663 186.713 329.643 184.1C330.67 181.487 331.183 178.663 331.183 175.63C331.183 172.597 330.67 169.773 329.643 167.16C328.663 164.547 327.24 162.283 325.373 160.37C323.506 158.41 321.29 156.893 318.723 155.82C316.203 154.747 313.426 154.21 310.393 154.21C307.36 154.21 304.56 154.747 301.993 155.82C299.473 156.893 297.28 158.41 295.413 160.37C293.593 162.283 292.17 164.547 291.143 167.16C290.116 169.773 289.603 172.597 289.603 175.63C289.603 178.663 290.116 181.487 291.143 184.1C292.17 186.713 293.593 189 295.413 190.96C297.28 192.873 299.473 194.39 301.993 195.51C304.56 196.583 307.36 197.12 310.393 197.12ZM353.156 203C352.129 203 351.266 202.65 350.566 201.95C349.913 201.25 349.586 200.387 349.586 199.36V151.97C349.586 150.897 349.913 150.033 350.566 149.38C351.266 148.68 352.129 148.33 353.156 148.33C354.276 148.33 355.209 148.773 355.956 149.66L386.476 190.26V151.97C386.476 150.897 386.826 150.033 387.526 149.38C388.226 148.68 389.089 148.33 390.116 148.33C391.189 148.33 392.053 148.68 392.706 149.38C393.359 150.033 393.686 150.897 393.686 151.97V199.36C393.686 200.387 393.359 201.25 392.706 201.95C392.053 202.65 391.189 203 390.116 203C389.649 203 389.136 202.907 388.576 202.72C388.063 202.487 387.643 202.16 387.316 201.74L356.796 161.14V199.36C356.796 200.387 356.446 201.25 355.746 201.95C355.093 202.65 354.229 203 353.156 203ZM411.331 203C410.305 203 409.441 202.65 408.741 201.95C408.041 201.25 407.691 200.387 407.691 199.36V151.97C407.691 150.897 408.041 150.033 408.741 149.38C409.441 148.68 410.305 148.33 411.331 148.33C412.405 148.33 413.268 148.68 413.921 149.38C414.621 150.033 414.971 150.897 414.971 151.97V199.36C414.971 200.387 414.621 201.25 413.921 201.95C413.268 202.65 412.405 203 411.331 203ZM453.451 203.7C449.671 203.7 446.125 203 442.811 201.6C439.545 200.153 436.675 198.17 434.201 195.65C431.775 193.083 429.861 190.097 428.461 186.69C427.108 183.283 426.431 179.597 426.431 175.63C426.431 171.71 427.108 168.07 428.461 164.71C429.861 161.303 431.775 158.34 434.201 155.82C436.675 153.253 439.545 151.247 442.811 149.8C446.078 148.353 449.625 147.63 453.451 147.63C457.045 147.63 460.125 148.097 462.691 149.03C465.305 149.963 467.918 151.503 470.531 153.65C470.905 153.93 471.185 154.233 471.371 154.56C471.605 154.84 471.745 155.143 471.791 155.47C471.885 155.75 471.931 156.1 471.931 156.52C471.931 157.407 471.605 158.153 470.951 158.76C470.345 159.32 469.598 159.647 468.711 159.74C467.825 159.787 466.961 159.483 466.121 158.83C464.395 157.337 462.598 156.193 460.731 155.4C458.911 154.607 456.485 154.21 453.451 154.21C450.698 154.21 448.108 154.77 445.681 155.89C443.255 157.01 441.108 158.55 439.241 160.51C437.421 162.47 435.998 164.757 434.971 167.37C433.945 169.937 433.431 172.69 433.431 175.63C433.431 178.617 433.945 181.417 434.971 184.03C435.998 186.597 437.421 188.86 439.241 190.82C441.108 192.78 443.255 194.32 445.681 195.44C448.108 196.513 450.698 197.05 453.451 197.05C455.831 197.05 458.071 196.653 460.171 195.86C462.318 195.02 464.371 193.877 466.331 192.43C467.171 191.823 467.988 191.567 468.781 191.66C469.621 191.707 470.321 192.033 470.881 192.64C471.441 193.2 471.721 193.993 471.721 195.02C471.721 195.487 471.628 195.953 471.441 196.42C471.255 196.84 470.975 197.237 470.601 197.61C468.081 199.617 465.375 201.133 462.481 202.16C459.635 203.187 456.625 203.7 453.451 203.7Z" fill="white"/>
</g>
<defs>
<filter id="filter0_d_1214_39" x="48" y="66.5027" width="167.552" height="160.021" filterUnits="userSpaceOnUse" color-interpolation-filters="sRGB">
<feFlood flood-opacity="0" result="BackgroundImageFix"/>
<feColorMatrix in="SourceAlpha" type="matrix" values="0 0 0 0 0 0 0 0 0 0 0 0 0 0 0 0 0 0 127 0" result="hardAlpha"/>
<feOffset dy="4"/>
<feGaussianBlur stdDeviation="2"/>
<feComposite in2="hardAlpha" operator="out"/>
<feColorMatrix type="matrix" values="0 0 0 0 0 0 0 0 0 0 0 0 0 0 0 0 0 0 0.25 0"/>
<feBlend mode="normal" in2="BackgroundImageFix" result="effect1_dropShadow_1214_39"/>
<feBlend mode="normal" in="SourceGraphic" in2="effect1_dropShadow_1214_39" result="shape"/>
</filter>
<filter id="filter1_d_1214_39" x="25.7166" y="27" width="129.491" height="126.295" filterUnits="userSpaceOnUse" color-interpolation-filters="sRGB">
<feFlood flood-opacity="0" result="BackgroundImageFix"/>
<feColorMatrix in="SourceAlpha" type="matrix" values="0 0 0 0 0 0 0 0 0 0 0 0 0 0 0 0 0 0 127 0" result="hardAlpha"/>
<feOffset dy="4"/>
<feGaussianBlur stdDeviation="2"/>
<feComposite in2="hardAlpha" operator="out"/>
<feColorMatrix type="matrix" values="0 0 0 0 0 0 0 0 0 0 0 0 0 0 0 0 0 0 0.25 0"/>
<feBlend mode="normal" in2="BackgroundImageFix" result="effect1_dropShadow_1214_39"/>
<feBlend mode="normal" in="SourceGraphic" in2="effect1_dropShadow_1214_39" result="shape"/>
</filter>
<clipPath id="clip0_1214_39">
<rect width="517" height="316" fill="white"/>
</clipPath>
</defs>
</svg>
