<svg width="515" height="272" viewBox="0 0 515 272" fill="none" xmlns="http://www.w3.org/2000/svg">
<rect width="515" height="272" fill="#A3A3AF"/>
<g filter="url(#filter0_d_1214_52)">
<path d="M54.5 227.024C119.5 222.524 153.189 217.031 176.5 189.524C201.5 160.024 191.5 100.024 150 98.4342C124.499 97.4574 111 98.4339 97 98.4339C83 98.4339 73 125.434 104.5 125.934C136 126.434 140.439 130.743 145 133.023C152 136.523 160 154.023 148 171.523C138.4 185.523 81.6667 193.356 54.5 195.523" stroke="#9D0410" stroke-width="23"/>
<path d="M65.5 195.024C65.5 201.157 61.0203 206.524 55 206.524C48.8391 206.524 43 202.02 43 196.024C43 189.949 48.4249 184.524 54.5 184.524C60.6048 184.524 65.5 188.978 65.5 195.024Z" fill="#9D0410" stroke="#9D0410"/>
<path d="M65 226.524C65 232.657 60.5203 238.024 54.5 238.024C48.3391 238.024 42.5 233.52 42.5 227.524C42.5 221.449 47.9249 216.024 54 216.024C60.1048 216.024 65 220.478 65 226.524Z" fill="#9D0410" stroke="#9D0410"/>
</g>
<g filter="url(#filter1_d_1214_52)">
<path d="M132.146 57.1885C69.1459 58.1885 49.6456 68.6884 35.1457 92.6882C30.0817 101.07 27.4745 113.927 32.1885 128.751C32.7837 130.622 33.7472 132.35 34.9681 133.889C42.0177 142.772 55.8986 156.652 96.1461 155.188" stroke="#9D0410" stroke-width="20"/>
<path d="M104 155.202C104 157.919 103.505 160.269 102.036 161.943C100.578 163.604 98.067 164.702 93.7927 164.702C89.4476 164.702 85.7927 160.528 85.7927 155.202C85.7927 149.876 89.4476 145.702 93.7927 145.702C98.067 145.702 100.578 146.799 102.036 148.46C103.505 150.134 104 152.485 104 155.202Z" fill="#9D0410" stroke="#9D0410"/>
<path d="M140.707 56.9926C140.603 60.4965 140.17 63.0772 138.83 64.6792C137.529 66.2347 135.248 66.9963 131.058 66.5034C126.615 65.9806 122.5 62.2371 122.5 57C122.5 51.674 126.155 47.5 130.5 47.5C134.774 47.5 137.285 48.5978 138.743 50.2588C140.211 51.9309 140.706 54.2786 140.707 56.9926Z" fill="#9D0410" stroke="#9D0410"/>
</g>
<path d="M236.999 88.5C234.865 88.5 232.832 88.1667 230.899 87.5C228.965 86.8333 227.282 85.9 225.849 84.7C224.415 83.5 223.365 82.1167 222.699 80.55C222.365 79.85 222.365 79.2 222.699 78.6C223.065 78 223.665 77.6167 224.499 77.45C225.099 77.3167 225.682 77.4167 226.249 77.75C226.849 78.05 227.299 78.5167 227.599 79.15C227.999 79.9833 228.649 80.75 229.549 81.45C230.482 82.15 231.599 82.7167 232.899 83.15C234.199 83.5833 235.565 83.8 236.999 83.8C238.599 83.8 240.065 83.55 241.399 83.05C242.765 82.55 243.865 81.8333 244.699 80.9C245.532 79.9333 245.949 78.75 245.949 77.35C245.949 75.5833 245.249 74 243.849 72.6C242.482 71.2 240.215 70.3333 237.049 70C232.915 69.6 229.665 68.3833 227.299 66.35C224.932 64.3167 223.749 61.8 223.749 58.8C223.749 56.6 224.365 54.7333 225.599 53.2C226.832 51.6667 228.499 50.5 230.599 49.7C232.732 48.9 235.099 48.5 237.699 48.5C239.732 48.5 241.499 48.7833 242.999 49.35C244.532 49.9167 245.865 50.7 246.999 51.7C248.132 52.7 249.115 53.8833 249.949 55.25C250.415 55.9833 250.599 56.6833 250.499 57.35C250.432 57.9833 250.115 58.4833 249.549 58.85C248.915 59.25 248.232 59.3333 247.499 59.1C246.765 58.8667 246.215 58.4333 245.849 57.8C245.315 56.8333 244.665 56.0167 243.899 55.35C243.132 54.6833 242.232 54.1667 241.199 53.8C240.165 53.4 238.949 53.2 237.549 53.2C235.082 53.1667 233.015 53.6333 231.349 54.6C229.682 55.5333 228.849 56.9833 228.849 58.95C228.849 59.95 229.099 60.9167 229.599 61.85C230.132 62.75 231.082 63.5333 232.449 64.2C233.849 64.8667 235.849 65.3333 238.449 65.6C242.415 66 245.499 67.2167 247.699 69.25C249.932 71.25 251.049 73.9 251.049 77.2C251.049 79.1 250.649 80.75 249.849 82.15C249.082 83.55 248.032 84.7333 246.699 85.7C245.399 86.6333 243.899 87.3333 242.199 87.8C240.532 88.2667 238.799 88.5 236.999 88.5ZM261.622 88C260.889 88 260.272 87.75 259.772 87.25C259.272 86.75 259.022 86.1333 259.022 85.4V51.55C259.022 50.7833 259.272 50.1667 259.772 49.7C260.272 49.2 260.889 48.95 261.622 48.95C262.389 48.95 263.006 49.2 263.472 49.7C263.972 50.1667 264.222 50.7833 264.222 51.55V85.4C264.222 86.1333 263.972 86.75 263.472 87.25C263.006 87.75 262.389 88 261.622 88ZM276.808 88C276.075 88 275.458 87.75 274.958 87.25C274.458 86.75 274.208 86.1333 274.208 85.4V51.55C274.208 50.7833 274.458 50.1667 274.958 49.7C275.458 49.2 276.075 48.95 276.808 48.95H285.808C288.308 48.95 290.525 49.4833 292.458 50.55C294.391 51.5833 295.891 53.0167 296.958 54.85C298.058 56.6833 298.608 58.8167 298.608 61.25C298.608 63.5167 298.058 65.5333 296.958 67.3C295.891 69.0667 294.391 70.45 292.458 71.45C290.525 72.45 288.308 72.95 285.808 72.95H279.408V85.4C279.408 86.1333 279.158 86.75 278.658 87.25C278.191 87.75 277.575 88 276.808 88ZM297.558 88C297.091 88 296.658 87.9 296.258 87.7C295.891 87.5 295.575 87.1833 295.308 86.75L286.308 72.25L291.358 70.8L299.558 84C300.158 84.9667 300.241 85.8833 299.808 86.75C299.375 87.5833 298.625 88 297.558 88ZM279.408 68.15H285.808C287.341 68.15 288.691 67.8667 289.858 67.3C291.025 66.7 291.941 65.8833 292.608 64.85C293.275 63.7833 293.608 62.5833 293.608 61.25C293.608 59.7833 293.275 58.4833 292.608 57.35C291.941 56.2167 291.025 55.3333 289.858 54.7C288.691 54.0667 287.341 53.75 285.808 53.75H279.408V68.15ZM323.85 88.5C320.916 88.5 318.233 88.0167 315.8 87.05C313.366 86.05 311.266 84.6667 309.5 82.9C307.766 81.1 306.416 78.9833 305.45 76.55C304.483 74.0833 304 71.3833 304 68.45C304 65.5167 304.483 62.8333 305.45 60.4C306.416 57.9667 307.766 55.8667 309.5 54.1C311.266 52.3 313.366 50.9167 315.8 49.95C318.233 48.95 320.916 48.45 323.85 48.45C326.783 48.45 329.45 48.95 331.85 49.95C334.283 50.9167 336.383 52.3 338.15 54.1C339.916 55.8667 341.283 57.9667 342.25 60.4C343.216 62.8333 343.7 65.5167 343.7 68.45C343.7 71.3833 343.216 74.0833 342.25 76.55C341.283 78.9833 339.916 81.1 338.15 82.9C336.383 84.6667 334.283 86.05 331.85 87.05C329.45 88.0167 326.783 88.5 323.85 88.5ZM323.85 83.8C326.016 83.8 328 83.4167 329.8 82.65C331.633 81.85 333.216 80.7667 334.55 79.4C335.883 78 336.9 76.3667 337.6 74.5C338.333 72.6333 338.7 70.6167 338.7 68.45C338.7 66.2833 338.333 64.2667 337.6 62.4C336.9 60.5333 335.883 58.9167 334.55 57.55C333.216 56.15 331.633 55.0667 329.8 54.3C328 53.5333 326.016 53.15 323.85 53.15C321.683 53.15 319.683 53.5333 317.85 54.3C316.05 55.0667 314.483 56.15 313.15 57.55C311.85 58.9167 310.833 60.5333 310.1 62.4C309.366 64.2667 309 66.2833 309 68.45C309 70.6167 309.366 72.6333 310.1 74.5C310.833 76.3667 311.85 78 313.15 79.4C314.483 80.7667 316.05 81.85 317.85 82.65C319.683 83.4167 321.683 83.8 323.85 83.8ZM354.395 88C353.661 88 353.045 87.75 352.545 87.25C352.078 86.75 351.845 86.1333 351.845 85.4V51.55C351.845 50.7833 352.078 50.1667 352.545 49.7C353.045 49.2 353.661 48.95 354.395 48.95C355.195 48.95 355.861 49.2667 356.395 49.9L378.195 78.9V51.55C378.195 50.7833 378.445 50.1667 378.945 49.7C379.445 49.2 380.061 48.95 380.795 48.95C381.561 48.95 382.178 49.2 382.645 49.7C383.111 50.1667 383.345 50.7833 383.345 51.55V85.4C383.345 86.1333 383.111 86.75 382.645 87.25C382.178 87.75 381.561 88 380.795 88C380.461 88 380.095 87.9333 379.695 87.8C379.328 87.6333 379.028 87.4 378.795 87.1L356.995 58.1V85.4C356.995 86.1333 356.745 86.75 356.245 87.25C355.778 87.75 355.161 88 354.395 88ZM395.949 88C395.215 88 394.599 87.75 394.099 87.25C393.599 86.75 393.349 86.1333 393.349 85.4V51.55C393.349 50.7833 393.599 50.1667 394.099 49.7C394.599 49.2 395.215 48.95 395.949 48.95C396.715 48.95 397.332 49.2 397.799 49.7C398.299 50.1667 398.549 50.7833 398.549 51.55V85.4C398.549 86.1333 398.299 86.75 397.799 87.25C397.332 87.75 396.715 88 395.949 88ZM426.034 88.5C423.334 88.5 420.801 88 418.434 87C416.101 85.9667 414.051 84.55 412.284 82.75C410.551 80.9167 409.184 78.7833 408.184 76.35C407.218 73.9167 406.734 71.2833 406.734 68.45C406.734 65.65 407.218 63.05 408.184 60.65C409.184 58.2167 410.551 56.1 412.284 54.3C414.051 52.4667 416.101 51.0333 418.434 50C420.768 48.9667 423.301 48.45 426.034 48.45C428.601 48.45 430.801 48.7833 432.634 49.45C434.501 50.1167 436.368 51.2167 438.234 52.75C438.501 52.95 438.701 53.1667 438.834 53.4C439.001 53.6 439.101 53.8167 439.134 54.05C439.201 54.25 439.234 54.5 439.234 54.8C439.234 55.4333 439.001 55.9667 438.534 56.4C438.101 56.8 437.568 57.0333 436.934 57.1C436.301 57.1333 435.684 56.9167 435.084 56.45C433.851 55.3833 432.568 54.5667 431.234 54C429.934 53.4333 428.201 53.15 426.034 53.15C424.068 53.15 422.218 53.55 420.484 54.35C418.751 55.15 417.218 56.25 415.884 57.65C414.584 59.05 413.568 60.6833 412.834 62.55C412.101 64.3833 411.734 66.35 411.734 68.45C411.734 70.5833 412.101 72.5833 412.834 74.45C413.568 76.2833 414.584 77.9 415.884 79.3C417.218 80.7 418.751 81.8 420.484 82.6C422.218 83.3667 424.068 83.75 426.034 83.75C427.734 83.75 429.334 83.4667 430.834 82.9C432.368 82.3 433.834 81.4833 435.234 80.45C435.834 80.0167 436.418 79.8333 436.984 79.9C437.584 79.9333 438.084 80.1667 438.484 80.6C438.884 81 439.084 81.5667 439.084 82.3C439.084 82.6333 439.018 82.9667 438.884 83.3C438.751 83.6 438.551 83.8833 438.284 84.15C436.484 85.5833 434.551 86.6667 432.484 87.4C430.451 88.1333 428.301 88.5 426.034 88.5ZM221.756 115.03C221.756 113.63 222.094 112.382 222.771 111.285C223.471 110.165 224.404 109.278 225.571 108.625C226.738 107.972 228.021 107.645 229.421 107.645C230.821 107.645 231.859 107.878 232.536 108.345C233.236 108.788 233.504 109.325 233.341 109.955C233.271 110.282 233.131 110.538 232.921 110.725C232.734 110.888 232.513 110.993 232.256 111.04C231.999 111.087 231.719 111.075 231.416 111.005C229.923 110.702 228.581 110.678 227.391 110.935C226.201 111.192 225.256 111.67 224.556 112.37C223.879 113.07 223.541 113.957 223.541 115.03H221.756ZM221.791 127C221.231 127 220.799 126.86 220.496 126.58C220.193 126.277 220.041 125.833 220.041 125.25V109.605C220.041 109.045 220.193 108.613 220.496 108.31C220.799 108.007 221.231 107.855 221.791 107.855C222.374 107.855 222.806 108.007 223.086 108.31C223.389 108.59 223.541 109.022 223.541 109.605V125.25C223.541 125.81 223.389 126.242 223.086 126.545C222.806 126.848 222.374 127 221.791 127ZM244.656 127.14C242.72 127.14 240.993 126.732 239.476 125.915C237.983 125.075 236.805 123.932 235.941 122.485C235.101 121.015 234.681 119.335 234.681 117.445C234.681 115.532 235.078 113.852 235.871 112.405C236.688 110.935 237.808 109.792 239.231 108.975C240.655 108.135 242.288 107.715 244.131 107.715C245.951 107.715 247.515 108.123 248.821 108.94C250.128 109.733 251.12 110.842 251.796 112.265C252.496 113.665 252.846 115.287 252.846 117.13C252.846 117.573 252.695 117.947 252.391 118.25C252.088 118.53 251.703 118.67 251.236 118.67H237.131V115.87H251.131L249.696 116.85C249.673 115.683 249.44 114.645 248.996 113.735C248.553 112.802 247.923 112.067 247.106 111.53C246.29 110.993 245.298 110.725 244.131 110.725C242.801 110.725 241.658 111.017 240.701 111.6C239.768 112.183 239.056 112.988 238.566 114.015C238.076 115.018 237.831 116.162 237.831 117.445C237.831 118.728 238.123 119.872 238.706 120.875C239.29 121.878 240.095 122.672 241.121 123.255C242.148 123.838 243.326 124.13 244.656 124.13C245.38 124.13 246.115 124.002 246.861 123.745C247.631 123.465 248.25 123.15 248.716 122.8C249.066 122.543 249.44 122.415 249.836 122.415C250.256 122.392 250.618 122.508 250.921 122.765C251.318 123.115 251.528 123.5 251.551 123.92C251.575 124.34 251.388 124.702 250.991 125.005C250.198 125.635 249.206 126.148 248.016 126.545C246.85 126.942 245.73 127.14 244.656 127.14ZM273.57 127.035C273.056 127.035 272.625 126.872 272.275 126.545C271.948 126.195 271.785 125.763 271.785 125.25V116.64C271.785 115.31 271.54 114.225 271.05 113.385C270.56 112.545 269.895 111.927 269.055 111.53C268.238 111.11 267.293 110.9 266.22 110.9C265.24 110.9 264.353 111.098 263.56 111.495C262.766 111.892 262.136 112.428 261.67 113.105C261.203 113.758 260.97 114.517 260.97 115.38H258.765C258.765 113.91 259.115 112.603 259.815 111.46C260.538 110.293 261.518 109.372 262.755 108.695C263.991 108.018 265.38 107.68 266.92 107.68C268.53 107.68 269.965 108.03 271.225 108.73C272.508 109.407 273.511 110.41 274.235 111.74C274.981 113.07 275.355 114.703 275.355 116.64V125.25C275.355 125.763 275.18 126.195 274.83 126.545C274.503 126.872 274.083 127.035 273.57 127.035ZM259.185 127.035C258.671 127.035 258.24 126.872 257.89 126.545C257.563 126.195 257.4 125.763 257.4 125.25V109.64C257.4 109.103 257.563 108.672 257.89 108.345C258.24 108.018 258.671 107.855 259.185 107.855C259.721 107.855 260.153 108.018 260.48 108.345C260.806 108.672 260.97 109.103 260.97 109.64V125.25C260.97 125.763 260.806 126.195 260.48 126.545C260.153 126.872 259.721 127.035 259.185 127.035ZM289.937 127.14C288.117 127.14 286.472 126.72 285.002 125.88C283.555 125.017 282.4 123.85 281.537 122.38C280.697 120.91 280.277 119.253 280.277 117.41C280.277 115.567 280.662 113.922 281.432 112.475C282.225 111.005 283.299 109.85 284.652 109.01C286.005 108.147 287.534 107.715 289.237 107.715C290.614 107.715 291.885 108.007 293.052 108.59C294.219 109.15 295.199 109.92 295.992 110.9V101.45C295.992 100.913 296.155 100.482 296.482 100.155C296.832 99.8283 297.264 99.665 297.777 99.665C298.314 99.665 298.745 99.8283 299.072 100.155C299.399 100.482 299.562 100.913 299.562 101.45V117.41C299.562 119.253 299.13 120.91 298.267 122.38C297.427 123.85 296.284 125.017 294.837 125.88C293.39 126.72 291.757 127.14 289.937 127.14ZM289.937 123.99C291.127 123.99 292.189 123.71 293.122 123.15C294.055 122.567 294.79 121.773 295.327 120.77C295.864 119.767 296.132 118.647 296.132 117.41C296.132 116.15 295.864 115.03 295.327 114.05C294.79 113.07 294.055 112.3 293.122 111.74C292.189 111.157 291.127 110.865 289.937 110.865C288.77 110.865 287.709 111.157 286.752 111.74C285.819 112.3 285.072 113.07 284.512 114.05C283.975 115.03 283.707 116.15 283.707 117.41C283.707 118.647 283.975 119.767 284.512 120.77C285.072 121.773 285.819 122.567 286.752 123.15C287.709 123.71 288.77 123.99 289.937 123.99ZM312.831 127.14C311.198 127.14 309.681 126.895 308.281 126.405C306.905 125.892 305.831 125.25 305.061 124.48C304.711 124.107 304.56 123.687 304.606 123.22C304.676 122.73 304.91 122.333 305.306 122.03C305.773 121.657 306.228 121.505 306.671 121.575C307.138 121.622 307.535 121.82 307.861 122.17C308.258 122.613 308.888 123.033 309.751 123.43C310.638 123.803 311.618 123.99 312.691 123.99C314.045 123.99 315.071 123.768 315.771 123.325C316.495 122.882 316.868 122.31 316.891 121.61C316.915 120.91 316.576 120.303 315.876 119.79C315.2 119.277 313.951 118.857 312.131 118.53C309.775 118.063 308.06 117.363 306.986 116.43C305.936 115.497 305.411 114.353 305.411 113C305.411 111.81 305.761 110.83 306.461 110.06C307.161 109.267 308.06 108.683 309.156 108.31C310.253 107.913 311.396 107.715 312.586 107.715C314.126 107.715 315.491 107.96 316.681 108.45C317.871 108.94 318.816 109.617 319.516 110.48C319.843 110.853 319.995 111.25 319.971 111.67C319.948 112.067 319.75 112.405 319.376 112.685C319.003 112.942 318.56 113.023 318.046 112.93C317.533 112.837 317.101 112.627 316.751 112.3C316.168 111.74 315.538 111.355 314.861 111.145C314.185 110.935 313.403 110.83 312.516 110.83C311.49 110.83 310.615 111.005 309.891 111.355C309.191 111.705 308.841 112.218 308.841 112.895C308.841 113.315 308.946 113.7 309.156 114.05C309.39 114.377 309.833 114.68 310.486 114.96C311.14 115.217 312.096 115.473 313.356 115.73C315.106 116.08 316.483 116.523 317.486 117.06C318.513 117.597 319.248 118.227 319.691 118.95C320.135 119.65 320.356 120.467 320.356 121.4C320.356 122.473 320.065 123.442 319.481 124.305C318.921 125.168 318.081 125.857 316.961 126.37C315.865 126.883 314.488 127.14 312.831 127.14ZM326.69 126.335L324.31 124.235L336.21 108.52L338.555 110.62L326.69 126.335ZM325.64 127C324.544 127 323.995 126.452 323.995 125.355C323.995 124.258 324.544 123.71 325.64 123.71H337.575C338.672 123.71 339.22 124.258 339.22 125.355C339.22 126.452 338.672 127 337.575 127H325.64ZM325.29 111.145C324.194 111.145 323.645 110.597 323.645 109.5C323.645 108.403 324.194 107.855 325.29 107.855H337.225C338.322 107.855 338.87 108.403 338.87 109.5C338.87 110.597 338.322 111.145 337.225 111.145H325.29ZM352.083 127.14C350.146 127.14 348.42 126.732 346.903 125.915C345.41 125.075 344.231 123.932 343.368 122.485C342.528 121.015 342.108 119.335 342.108 117.445C342.108 115.532 342.505 113.852 343.298 112.405C344.115 110.935 345.235 109.792 346.658 108.975C348.081 108.135 349.715 107.715 351.558 107.715C353.378 107.715 354.941 108.123 356.248 108.94C357.555 109.733 358.546 110.842 359.223 112.265C359.923 113.665 360.273 115.287 360.273 117.13C360.273 117.573 360.121 117.947 359.818 118.25C359.515 118.53 359.13 118.67 358.663 118.67H344.558V115.87H358.558L357.123 116.85C357.1 115.683 356.866 114.645 356.423 113.735C355.98 112.802 355.35 112.067 354.533 111.53C353.716 110.993 352.725 110.725 351.558 110.725C350.228 110.725 349.085 111.017 348.128 111.6C347.195 112.183 346.483 112.988 345.993 114.015C345.503 115.018 345.258 116.162 345.258 117.445C345.258 118.728 345.55 119.872 346.133 120.875C346.716 121.878 347.521 122.672 348.548 123.255C349.575 123.838 350.753 124.13 352.083 124.13C352.806 124.13 353.541 124.002 354.288 123.745C355.058 123.465 355.676 123.15 356.143 122.8C356.493 122.543 356.866 122.415 357.263 122.415C357.683 122.392 358.045 122.508 358.348 122.765C358.745 123.115 358.955 123.5 358.978 123.92C359.001 124.34 358.815 124.702 358.418 125.005C357.625 125.635 356.633 126.148 355.443 126.545C354.276 126.942 353.156 127.14 352.083 127.14ZM366.541 115.03C366.541 113.63 366.88 112.382 367.556 111.285C368.256 110.165 369.19 109.278 370.356 108.625C371.523 107.972 372.806 107.645 374.206 107.645C375.606 107.645 376.645 107.878 377.321 108.345C378.021 108.788 378.29 109.325 378.126 109.955C378.056 110.282 377.916 110.538 377.706 110.725C377.52 110.888 377.298 110.993 377.041 111.04C376.785 111.087 376.505 111.075 376.201 111.005C374.708 110.702 373.366 110.678 372.176 110.935C370.986 111.192 370.041 111.67 369.341 112.37C368.665 113.07 368.326 113.957 368.326 115.03H366.541ZM366.576 127C366.016 127 365.585 126.86 365.281 126.58C364.978 126.277 364.826 125.833 364.826 125.25V109.605C364.826 109.045 364.978 108.613 365.281 108.31C365.585 108.007 366.016 107.855 366.576 107.855C367.16 107.855 367.591 108.007 367.871 108.31C368.175 108.59 368.326 109.022 368.326 109.605V125.25C368.326 125.81 368.175 126.242 367.871 126.545C367.591 126.848 367.16 127 366.576 127ZM383.633 120.035C383.119 120.035 382.688 119.872 382.338 119.545C382.011 119.195 381.848 118.763 381.848 118.25V101.45C381.848 100.913 382.011 100.482 382.338 100.155C382.688 99.8283 383.119 99.665 383.633 99.665C384.169 99.665 384.601 99.8283 384.928 100.155C385.254 100.482 385.418 100.913 385.418 101.45V118.25C385.418 118.763 385.254 119.195 384.928 119.545C384.601 119.872 384.169 120.035 383.633 120.035ZM398.018 127.035C397.504 127.035 397.073 126.872 396.723 126.545C396.396 126.195 396.233 125.763 396.233 125.25V116.64C396.233 115.31 395.988 114.225 395.498 113.385C395.008 112.545 394.343 111.927 393.503 111.53C392.686 111.11 391.741 110.9 390.668 110.9C389.688 110.9 388.801 111.098 388.008 111.495C387.214 111.892 386.584 112.428 386.118 113.105C385.651 113.758 385.418 114.517 385.418 115.38H383.213C383.213 113.91 383.563 112.603 384.263 111.46C384.986 110.293 385.966 109.372 387.203 108.695C388.439 108.018 389.828 107.68 391.368 107.68C392.978 107.68 394.413 108.03 395.673 108.73C396.956 109.407 397.959 110.41 398.683 111.74C399.429 113.07 399.803 114.703 399.803 116.64V125.25C399.803 125.763 399.628 126.195 399.278 126.545C398.951 126.872 398.531 127.035 398.018 127.035ZM383.633 127.035C383.119 127.035 382.688 126.872 382.338 126.545C382.011 126.195 381.848 125.763 381.848 125.25V109.64C381.848 109.103 382.011 108.672 382.338 108.345C382.688 108.018 383.119 107.855 383.633 107.855C384.169 107.855 384.601 108.018 384.928 108.345C385.254 108.672 385.418 109.103 385.418 109.64V125.25C385.418 125.763 385.254 126.195 384.928 126.545C384.601 126.872 384.169 127.035 383.633 127.035ZM413.719 127.14C412.016 127.14 410.488 126.72 409.134 125.88C407.781 125.017 406.708 123.862 405.914 122.415C405.144 120.945 404.759 119.288 404.759 117.445C404.759 115.602 405.179 113.945 406.019 112.475C406.883 111.005 408.038 109.85 409.484 109.01C410.954 108.147 412.599 107.715 414.419 107.715C416.239 107.715 417.873 108.147 419.319 109.01C420.766 109.85 421.909 111.005 422.749 112.475C423.613 113.945 424.044 115.602 424.044 117.445H422.679C422.679 119.288 422.283 120.945 421.489 122.415C420.719 123.862 419.658 125.017 418.304 125.88C416.951 126.72 415.423 127.14 413.719 127.14ZM414.419 123.99C415.609 123.99 416.671 123.71 417.604 123.15C418.538 122.567 419.273 121.785 419.809 120.805C420.346 119.802 420.614 118.682 420.614 117.445C420.614 116.185 420.346 115.065 419.809 114.085C419.273 113.082 418.538 112.3 417.604 111.74C416.671 111.157 415.609 110.865 414.419 110.865C413.253 110.865 412.191 111.157 411.234 111.74C410.301 112.3 409.554 113.082 408.994 114.085C408.458 115.065 408.189 116.185 408.189 117.445C408.189 118.682 408.458 119.802 408.994 120.805C409.554 121.785 410.301 122.567 411.234 123.15C412.191 123.71 413.253 123.99 414.419 123.99ZM422.259 127.035C421.746 127.035 421.314 126.872 420.964 126.545C420.638 126.195 420.474 125.763 420.474 125.25V119.895L421.139 116.185L424.044 117.445V125.25C424.044 125.763 423.869 126.195 423.519 126.545C423.193 126.872 422.773 127.035 422.259 127.035ZM414.559 104.845C414.046 104.845 413.614 104.682 413.264 104.355C412.938 104.005 412.774 103.573 412.774 103.06C412.774 102.57 412.914 102.173 413.194 101.87L416.624 98.44C416.974 98.09 417.394 97.915 417.884 97.915C418.421 97.915 418.853 98.09 419.179 98.44C419.506 98.79 419.669 99.2217 419.669 99.735C419.669 99.9683 419.634 100.19 419.564 100.4C419.494 100.61 419.366 100.797 419.179 100.96L415.784 104.355C415.458 104.682 415.049 104.845 414.559 104.845ZM431.178 126.335L428.798 124.235L440.698 108.52L443.043 110.62L431.178 126.335ZM430.128 127C429.031 127 428.483 126.452 428.483 125.355C428.483 124.258 429.031 123.71 430.128 123.71H442.063C443.159 123.71 443.708 124.258 443.708 125.355C443.708 126.452 443.159 127 442.063 127H430.128ZM429.778 111.145C428.681 111.145 428.133 110.597 428.133 109.5C428.133 108.403 428.681 107.855 429.778 107.855H441.713C442.809 107.855 443.358 108.403 443.358 109.5C443.358 110.597 442.809 111.145 441.713 111.145H429.778Z" fill="white"/>
<defs>
<filter id="filter0_d_1214_52" x="38" y="86.5027" width="167.552" height="160.021" filterUnits="userSpaceOnUse" color-interpolation-filters="sRGB">
<feFlood flood-opacity="0" result="BackgroundImageFix"/>
<feColorMatrix in="SourceAlpha" type="matrix" values="0 0 0 0 0 0 0 0 0 0 0 0 0 0 0 0 0 0 127 0" result="hardAlpha"/>
<feOffset dy="4"/>
<feGaussianBlur stdDeviation="2"/>
<feComposite in2="hardAlpha" operator="out"/>
<feColorMatrix type="matrix" values="0 0 0 0 0 0 0 0 0 0 0 0 0 0 0 0 0 0 0.25 0"/>
<feBlend mode="normal" in2="BackgroundImageFix" result="effect1_dropShadow_1214_52"/>
<feBlend mode="normal" in="SourceGraphic" in2="effect1_dropShadow_1214_52" result="shape"/>
</filter>
<filter id="filter1_d_1214_52" x="15.7166" y="47" width="129.491" height="126.295" filterUnits="userSpaceOnUse" color-interpolation-filters="sRGB">
<feFlood flood-opacity="0" result="BackgroundImageFix"/>
<feColorMatrix in="SourceAlpha" type="matrix" values="0 0 0 0 0 0 0 0 0 0 0 0 0 0 0 0 0 0 127 0" result="hardAlpha"/>
<feOffset dy="4"/>
<feGaussianBlur stdDeviation="2"/>
<feComposite in2="hardAlpha" operator="out"/>
<feColorMatrix type="matrix" values="0 0 0 0 0 0 0 0 0 0 0 0 0 0 0 0 0 0 0.25 0"/>
<feBlend mode="normal" in2="BackgroundImageFix" result="effect1_dropShadow_1214_52"/>
<feBlend mode="normal" in="SourceGraphic" in2="effect1_dropShadow_1214_52" result="shape"/>
</filter>
</defs>
</svg>
