<svg width="455" height="408" viewBox="0 0 455 408" fill="none" xmlns="http://www.w3.org/2000/svg">
<rect width="455" height="408" fill="#A3A3AF"/>
<g filter="url(#filter0_d_1214_24)">
<path d="M176.5 231.024C241.5 226.524 275.189 221.031 298.5 193.524C323.5 164.024 313.5 104.024 272 102.434C246.499 101.457 233 102.434 219 102.434C205 102.434 195 129.434 226.5 129.934C258 130.434 262.439 134.743 267 137.023C274 140.523 282 158.023 270 175.523C260.4 189.523 203.667 197.356 176.5 199.523" stroke="#9D0410" stroke-width="23"/>
<path d="M187.5 199.024C187.5 205.157 183.02 210.524 177 210.524C170.839 210.524 165 206.02 165 200.024C165 193.949 170.425 188.524 176.5 188.524C182.605 188.524 187.5 192.978 187.5 199.024Z" fill="#9D0410" stroke="#9D0410"/>
<path d="M187 230.524C187 236.657 182.52 242.024 176.5 242.024C170.339 242.024 164.5 237.52 164.5 231.524C164.5 225.449 169.925 220.024 176 220.024C182.105 220.024 187 224.478 187 230.524Z" fill="#9D0410" stroke="#9D0410"/>
</g>
<g filter="url(#filter1_d_1214_24)">
<path d="M254.146 61.1885C191.146 62.1885 171.646 72.6884 157.146 96.6882C152.082 105.07 149.475 117.927 154.188 132.751C154.784 134.622 155.747 136.35 156.968 137.889C164.018 146.772 177.899 160.652 218.146 159.188" stroke="#9D0410" stroke-width="20"/>
<path d="M226 159.202C226 161.919 225.505 164.269 224.036 165.943C222.578 167.604 220.067 168.702 215.793 168.702C211.448 168.702 207.793 164.528 207.793 159.202C207.793 153.876 211.448 149.702 215.793 149.702C220.067 149.702 222.578 150.799 224.036 152.46C225.505 154.134 226 156.485 226 159.202Z" fill="#9D0410" stroke="#9D0410"/>
<path d="M262.707 60.9926C262.603 64.4965 262.17 67.0772 260.83 68.6792C259.529 70.2347 257.248 70.9963 253.058 70.5034C248.615 69.9806 244.5 66.2371 244.5 61C244.5 55.674 248.155 51.5 252.5 51.5C256.774 51.5 259.285 52.5978 260.743 54.2588C262.211 55.9309 262.706 58.2786 262.707 60.9926Z" fill="#9D0410" stroke="#9D0410"/>
</g>
<path d="M132.499 307.5C130.365 307.5 128.332 307.167 126.399 306.5C124.465 305.833 122.782 304.9 121.349 303.7C119.915 302.5 118.865 301.117 118.199 299.55C117.865 298.85 117.865 298.2 118.199 297.6C118.565 297 119.165 296.617 119.999 296.45C120.599 296.317 121.182 296.417 121.749 296.75C122.349 297.05 122.799 297.517 123.099 298.15C123.499 298.983 124.149 299.75 125.049 300.45C125.982 301.15 127.099 301.717 128.399 302.15C129.699 302.583 131.065 302.8 132.499 302.8C134.099 302.8 135.565 302.55 136.899 302.05C138.265 301.55 139.365 300.833 140.199 299.9C141.032 298.933 141.449 297.75 141.449 296.35C141.449 294.583 140.749 293 139.349 291.6C137.982 290.2 135.715 289.333 132.549 289C128.415 288.6 125.165 287.383 122.799 285.35C120.432 283.317 119.249 280.8 119.249 277.8C119.249 275.6 119.865 273.733 121.099 272.2C122.332 270.667 123.999 269.5 126.099 268.7C128.232 267.9 130.599 267.5 133.199 267.5C135.232 267.5 136.999 267.783 138.499 268.35C140.032 268.917 141.365 269.7 142.499 270.7C143.632 271.7 144.615 272.883 145.449 274.25C145.915 274.983 146.099 275.683 145.999 276.35C145.932 276.983 145.615 277.483 145.049 277.85C144.415 278.25 143.732 278.333 142.999 278.1C142.265 277.867 141.715 277.433 141.349 276.8C140.815 275.833 140.165 275.017 139.399 274.35C138.632 273.683 137.732 273.167 136.699 272.8C135.665 272.4 134.449 272.2 133.049 272.2C130.582 272.167 128.515 272.633 126.849 273.6C125.182 274.533 124.349 275.983 124.349 277.95C124.349 278.95 124.599 279.917 125.099 280.85C125.632 281.75 126.582 282.533 127.949 283.2C129.349 283.867 131.349 284.333 133.949 284.6C137.915 285 140.999 286.217 143.199 288.25C145.432 290.25 146.549 292.9 146.549 296.2C146.549 298.1 146.149 299.75 145.349 301.15C144.582 302.55 143.532 303.733 142.199 304.7C140.899 305.633 139.399 306.333 137.699 306.8C136.032 307.267 134.299 307.5 132.499 307.5ZM157.122 307C156.389 307 155.772 306.75 155.272 306.25C154.772 305.75 154.522 305.133 154.522 304.4V270.55C154.522 269.783 154.772 269.167 155.272 268.7C155.772 268.2 156.389 267.95 157.122 267.95C157.889 267.95 158.506 268.2 158.972 268.7C159.472 269.167 159.722 269.783 159.722 270.55V304.4C159.722 305.133 159.472 305.75 158.972 306.25C158.506 306.75 157.889 307 157.122 307ZM172.308 307C171.575 307 170.958 306.75 170.458 306.25C169.958 305.75 169.708 305.133 169.708 304.4V270.55C169.708 269.783 169.958 269.167 170.458 268.7C170.958 268.2 171.575 267.95 172.308 267.95H181.308C183.808 267.95 186.025 268.483 187.958 269.55C189.891 270.583 191.391 272.017 192.458 273.85C193.558 275.683 194.108 277.817 194.108 280.25C194.108 282.517 193.558 284.533 192.458 286.3C191.391 288.067 189.891 289.45 187.958 290.45C186.025 291.45 183.808 291.95 181.308 291.95H174.908V304.4C174.908 305.133 174.658 305.75 174.158 306.25C173.691 306.75 173.075 307 172.308 307ZM193.058 307C192.591 307 192.158 306.9 191.758 306.7C191.391 306.5 191.075 306.183 190.808 305.75L181.808 291.25L186.858 289.8L195.058 303C195.658 303.967 195.741 304.883 195.308 305.75C194.875 306.583 194.125 307 193.058 307ZM174.908 287.15H181.308C182.841 287.15 184.191 286.867 185.358 286.3C186.525 285.7 187.441 284.883 188.108 283.85C188.775 282.783 189.108 281.583 189.108 280.25C189.108 278.783 188.775 277.483 188.108 276.35C187.441 275.217 186.525 274.333 185.358 273.7C184.191 273.067 182.841 272.75 181.308 272.75H174.908V287.15ZM219.35 307.5C216.416 307.5 213.733 307.017 211.3 306.05C208.866 305.05 206.766 303.667 205 301.9C203.266 300.1 201.916 297.983 200.95 295.55C199.983 293.083 199.5 290.383 199.5 287.45C199.5 284.517 199.983 281.833 200.95 279.4C201.916 276.967 203.266 274.867 205 273.1C206.766 271.3 208.866 269.917 211.3 268.95C213.733 267.95 216.416 267.45 219.35 267.45C222.283 267.45 224.95 267.95 227.35 268.95C229.783 269.917 231.883 271.3 233.65 273.1C235.416 274.867 236.783 276.967 237.75 279.4C238.716 281.833 239.2 284.517 239.2 287.45C239.2 290.383 238.716 293.083 237.75 295.55C236.783 297.983 235.416 300.1 233.65 301.9C231.883 303.667 229.783 305.05 227.35 306.05C224.95 307.017 222.283 307.5 219.35 307.5ZM219.35 302.8C221.516 302.8 223.5 302.417 225.3 301.65C227.133 300.85 228.716 299.767 230.05 298.4C231.383 297 232.4 295.367 233.1 293.5C233.833 291.633 234.2 289.617 234.2 287.45C234.2 285.283 233.833 283.267 233.1 281.4C232.4 279.533 231.383 277.917 230.05 276.55C228.716 275.15 227.133 274.067 225.3 273.3C223.5 272.533 221.516 272.15 219.35 272.15C217.183 272.15 215.183 272.533 213.35 273.3C211.55 274.067 209.983 275.15 208.65 276.55C207.35 277.917 206.333 279.533 205.6 281.4C204.866 283.267 204.5 285.283 204.5 287.45C204.5 289.617 204.866 291.633 205.6 293.5C206.333 295.367 207.35 297 208.65 298.4C209.983 299.767 211.55 300.85 213.35 301.65C215.183 302.417 217.183 302.8 219.35 302.8ZM249.895 307C249.161 307 248.545 306.75 248.045 306.25C247.578 305.75 247.345 305.133 247.345 304.4V270.55C247.345 269.783 247.578 269.167 248.045 268.7C248.545 268.2 249.161 267.95 249.895 267.95C250.695 267.95 251.361 268.267 251.895 268.9L273.695 297.9V270.55C273.695 269.783 273.945 269.167 274.445 268.7C274.945 268.2 275.561 267.95 276.295 267.95C277.061 267.95 277.678 268.2 278.145 268.7C278.611 269.167 278.845 269.783 278.845 270.55V304.4C278.845 305.133 278.611 305.75 278.145 306.25C277.678 306.75 277.061 307 276.295 307C275.961 307 275.595 306.933 275.195 306.8C274.828 306.633 274.528 306.4 274.295 306.1L252.495 277.1V304.4C252.495 305.133 252.245 305.75 251.745 306.25C251.278 306.75 250.661 307 249.895 307ZM291.449 307C290.715 307 290.099 306.75 289.599 306.25C289.099 305.75 288.849 305.133 288.849 304.4V270.55C288.849 269.783 289.099 269.167 289.599 268.7C290.099 268.2 290.715 267.95 291.449 267.95C292.215 267.95 292.832 268.2 293.299 268.7C293.799 269.167 294.049 269.783 294.049 270.55V304.4C294.049 305.133 293.799 305.75 293.299 306.25C292.832 306.75 292.215 307 291.449 307ZM321.534 307.5C318.834 307.5 316.301 307 313.934 306C311.601 304.967 309.551 303.55 307.784 301.75C306.051 299.917 304.684 297.783 303.684 295.35C302.718 292.917 302.234 290.283 302.234 287.45C302.234 284.65 302.718 282.05 303.684 279.65C304.684 277.217 306.051 275.1 307.784 273.3C309.551 271.467 311.601 270.033 313.934 269C316.268 267.967 318.801 267.45 321.534 267.45C324.101 267.45 326.301 267.783 328.134 268.45C330.001 269.117 331.868 270.217 333.734 271.75C334.001 271.95 334.201 272.167 334.334 272.4C334.501 272.6 334.601 272.817 334.634 273.05C334.701 273.25 334.734 273.5 334.734 273.8C334.734 274.433 334.501 274.967 334.034 275.4C333.601 275.8 333.068 276.033 332.434 276.1C331.801 276.133 331.184 275.917 330.584 275.45C329.351 274.383 328.068 273.567 326.734 273C325.434 272.433 323.701 272.15 321.534 272.15C319.568 272.15 317.718 272.55 315.984 273.35C314.251 274.15 312.718 275.25 311.384 276.65C310.084 278.05 309.068 279.683 308.334 281.55C307.601 283.383 307.234 285.35 307.234 287.45C307.234 289.583 307.601 291.583 308.334 293.45C309.068 295.283 310.084 296.9 311.384 298.3C312.718 299.7 314.251 300.8 315.984 301.6C317.718 302.367 319.568 302.75 321.534 302.75C323.234 302.75 324.834 302.467 326.334 301.9C327.868 301.3 329.334 300.483 330.734 299.45C331.334 299.017 331.918 298.833 332.484 298.9C333.084 298.933 333.584 299.167 333.984 299.6C334.384 300 334.584 300.567 334.584 301.3C334.584 301.633 334.518 301.967 334.384 302.3C334.251 302.6 334.051 302.883 333.784 303.15C331.984 304.583 330.051 305.667 327.984 306.4C325.951 307.133 323.801 307.5 321.534 307.5ZM117.256 334.03C117.256 332.63 117.594 331.382 118.271 330.285C118.971 329.165 119.904 328.278 121.071 327.625C122.238 326.972 123.521 326.645 124.921 326.645C126.321 326.645 127.359 326.878 128.036 327.345C128.736 327.788 129.004 328.325 128.841 328.955C128.771 329.282 128.631 329.538 128.421 329.725C128.234 329.888 128.013 329.993 127.756 330.04C127.499 330.087 127.219 330.075 126.916 330.005C125.423 329.702 124.081 329.678 122.891 329.935C121.701 330.192 120.756 330.67 120.056 331.37C119.379 332.07 119.041 332.957 119.041 334.03H117.256ZM117.291 346C116.731 346 116.299 345.86 115.996 345.58C115.693 345.277 115.541 344.833 115.541 344.25V328.605C115.541 328.045 115.693 327.613 115.996 327.31C116.299 327.007 116.731 326.855 117.291 326.855C117.874 326.855 118.306 327.007 118.586 327.31C118.889 327.59 119.041 328.022 119.041 328.605V344.25C119.041 344.81 118.889 345.242 118.586 345.545C118.306 345.848 117.874 346 117.291 346ZM140.156 346.14C138.22 346.14 136.493 345.732 134.976 344.915C133.483 344.075 132.305 342.932 131.441 341.485C130.601 340.015 130.181 338.335 130.181 336.445C130.181 334.532 130.578 332.852 131.371 331.405C132.188 329.935 133.308 328.792 134.731 327.975C136.155 327.135 137.788 326.715 139.631 326.715C141.451 326.715 143.015 327.123 144.321 327.94C145.628 328.733 146.62 329.842 147.296 331.265C147.996 332.665 148.346 334.287 148.346 336.13C148.346 336.573 148.195 336.947 147.891 337.25C147.588 337.53 147.203 337.67 146.736 337.67H132.631V334.87H146.631L145.196 335.85C145.173 334.683 144.94 333.645 144.496 332.735C144.053 331.802 143.423 331.067 142.606 330.53C141.79 329.993 140.798 329.725 139.631 329.725C138.301 329.725 137.158 330.017 136.201 330.6C135.268 331.183 134.556 331.988 134.066 333.015C133.576 334.018 133.331 335.162 133.331 336.445C133.331 337.728 133.623 338.872 134.206 339.875C134.79 340.878 135.595 341.672 136.621 342.255C137.648 342.838 138.826 343.13 140.156 343.13C140.88 343.13 141.615 343.002 142.361 342.745C143.131 342.465 143.75 342.15 144.216 341.8C144.566 341.543 144.94 341.415 145.336 341.415C145.756 341.392 146.118 341.508 146.421 341.765C146.818 342.115 147.028 342.5 147.051 342.92C147.075 343.34 146.888 343.702 146.491 344.005C145.698 344.635 144.706 345.148 143.516 345.545C142.35 345.942 141.23 346.14 140.156 346.14ZM169.07 346.035C168.556 346.035 168.125 345.872 167.775 345.545C167.448 345.195 167.285 344.763 167.285 344.25V335.64C167.285 334.31 167.04 333.225 166.55 332.385C166.06 331.545 165.395 330.927 164.555 330.53C163.738 330.11 162.793 329.9 161.72 329.9C160.74 329.9 159.853 330.098 159.06 330.495C158.266 330.892 157.636 331.428 157.17 332.105C156.703 332.758 156.47 333.517 156.47 334.38H154.265C154.265 332.91 154.615 331.603 155.315 330.46C156.038 329.293 157.018 328.372 158.255 327.695C159.491 327.018 160.88 326.68 162.42 326.68C164.03 326.68 165.465 327.03 166.725 327.73C168.008 328.407 169.011 329.41 169.735 330.74C170.481 332.07 170.855 333.703 170.855 335.64V344.25C170.855 344.763 170.68 345.195 170.33 345.545C170.003 345.872 169.583 346.035 169.07 346.035ZM154.685 346.035C154.171 346.035 153.74 345.872 153.39 345.545C153.063 345.195 152.9 344.763 152.9 344.25V328.64C152.9 328.103 153.063 327.672 153.39 327.345C153.74 327.018 154.171 326.855 154.685 326.855C155.221 326.855 155.653 327.018 155.98 327.345C156.306 327.672 156.47 328.103 156.47 328.64V344.25C156.47 344.763 156.306 345.195 155.98 345.545C155.653 345.872 155.221 346.035 154.685 346.035ZM185.437 346.14C183.617 346.14 181.972 345.72 180.502 344.88C179.055 344.017 177.9 342.85 177.037 341.38C176.197 339.91 175.777 338.253 175.777 336.41C175.777 334.567 176.162 332.922 176.932 331.475C177.725 330.005 178.799 328.85 180.152 328.01C181.505 327.147 183.034 326.715 184.737 326.715C186.114 326.715 187.385 327.007 188.552 327.59C189.719 328.15 190.699 328.92 191.492 329.9V320.45C191.492 319.913 191.655 319.482 191.982 319.155C192.332 318.828 192.764 318.665 193.277 318.665C193.814 318.665 194.245 318.828 194.572 319.155C194.899 319.482 195.062 319.913 195.062 320.45V336.41C195.062 338.253 194.63 339.91 193.767 341.38C192.927 342.85 191.784 344.017 190.337 344.88C188.89 345.72 187.257 346.14 185.437 346.14ZM185.437 342.99C186.627 342.99 187.689 342.71 188.622 342.15C189.555 341.567 190.29 340.773 190.827 339.77C191.364 338.767 191.632 337.647 191.632 336.41C191.632 335.15 191.364 334.03 190.827 333.05C190.29 332.07 189.555 331.3 188.622 330.74C187.689 330.157 186.627 329.865 185.437 329.865C184.27 329.865 183.209 330.157 182.252 330.74C181.319 331.3 180.572 332.07 180.012 333.05C179.475 334.03 179.207 335.15 179.207 336.41C179.207 337.647 179.475 338.767 180.012 339.77C180.572 340.773 181.319 341.567 182.252 342.15C183.209 342.71 184.27 342.99 185.437 342.99ZM208.331 346.14C206.698 346.14 205.181 345.895 203.781 345.405C202.405 344.892 201.331 344.25 200.561 343.48C200.211 343.107 200.06 342.687 200.106 342.22C200.176 341.73 200.41 341.333 200.806 341.03C201.273 340.657 201.728 340.505 202.171 340.575C202.638 340.622 203.035 340.82 203.361 341.17C203.758 341.613 204.388 342.033 205.251 342.43C206.138 342.803 207.118 342.99 208.191 342.99C209.545 342.99 210.571 342.768 211.271 342.325C211.995 341.882 212.368 341.31 212.391 340.61C212.415 339.91 212.076 339.303 211.376 338.79C210.7 338.277 209.451 337.857 207.631 337.53C205.275 337.063 203.56 336.363 202.486 335.43C201.436 334.497 200.911 333.353 200.911 332C200.911 330.81 201.261 329.83 201.961 329.06C202.661 328.267 203.56 327.683 204.656 327.31C205.753 326.913 206.896 326.715 208.086 326.715C209.626 326.715 210.991 326.96 212.181 327.45C213.371 327.94 214.316 328.617 215.016 329.48C215.343 329.853 215.495 330.25 215.471 330.67C215.448 331.067 215.25 331.405 214.876 331.685C214.503 331.942 214.06 332.023 213.546 331.93C213.033 331.837 212.601 331.627 212.251 331.3C211.668 330.74 211.038 330.355 210.361 330.145C209.685 329.935 208.903 329.83 208.016 329.83C206.99 329.83 206.115 330.005 205.391 330.355C204.691 330.705 204.341 331.218 204.341 331.895C204.341 332.315 204.446 332.7 204.656 333.05C204.89 333.377 205.333 333.68 205.986 333.96C206.64 334.217 207.596 334.473 208.856 334.73C210.606 335.08 211.983 335.523 212.986 336.06C214.013 336.597 214.748 337.227 215.191 337.95C215.635 338.65 215.856 339.467 215.856 340.4C215.856 341.473 215.565 342.442 214.981 343.305C214.421 344.168 213.581 344.857 212.461 345.37C211.365 345.883 209.988 346.14 208.331 346.14ZM222.19 345.335L219.81 343.235L231.71 327.52L234.055 329.62L222.19 345.335ZM221.14 346C220.044 346 219.495 345.452 219.495 344.355C219.495 343.258 220.044 342.71 221.14 342.71H233.075C234.172 342.71 234.72 343.258 234.72 344.355C234.72 345.452 234.172 346 233.075 346H221.14ZM220.79 330.145C219.694 330.145 219.145 329.597 219.145 328.5C219.145 327.403 219.694 326.855 220.79 326.855H232.725C233.822 326.855 234.37 327.403 234.37 328.5C234.37 329.597 233.822 330.145 232.725 330.145H220.79ZM247.583 346.14C245.646 346.14 243.92 345.732 242.403 344.915C240.91 344.075 239.731 342.932 238.868 341.485C238.028 340.015 237.608 338.335 237.608 336.445C237.608 334.532 238.005 332.852 238.798 331.405C239.615 329.935 240.735 328.792 242.158 327.975C243.581 327.135 245.215 326.715 247.058 326.715C248.878 326.715 250.441 327.123 251.748 327.94C253.055 328.733 254.046 329.842 254.723 331.265C255.423 332.665 255.773 334.287 255.773 336.13C255.773 336.573 255.621 336.947 255.318 337.25C255.015 337.53 254.63 337.67 254.163 337.67H240.058V334.87H254.058L252.623 335.85C252.6 334.683 252.366 333.645 251.923 332.735C251.48 331.802 250.85 331.067 250.033 330.53C249.216 329.993 248.225 329.725 247.058 329.725C245.728 329.725 244.585 330.017 243.628 330.6C242.695 331.183 241.983 331.988 241.493 333.015C241.003 334.018 240.758 335.162 240.758 336.445C240.758 337.728 241.05 338.872 241.633 339.875C242.216 340.878 243.021 341.672 244.048 342.255C245.075 342.838 246.253 343.13 247.583 343.13C248.306 343.13 249.041 343.002 249.788 342.745C250.558 342.465 251.176 342.15 251.643 341.8C251.993 341.543 252.366 341.415 252.763 341.415C253.183 341.392 253.545 341.508 253.848 341.765C254.245 342.115 254.455 342.5 254.478 342.92C254.501 343.34 254.315 343.702 253.918 344.005C253.125 344.635 252.133 345.148 250.943 345.545C249.776 345.942 248.656 346.14 247.583 346.14ZM262.041 334.03C262.041 332.63 262.38 331.382 263.056 330.285C263.756 329.165 264.69 328.278 265.856 327.625C267.023 326.972 268.306 326.645 269.706 326.645C271.106 326.645 272.145 326.878 272.821 327.345C273.521 327.788 273.79 328.325 273.626 328.955C273.556 329.282 273.416 329.538 273.206 329.725C273.02 329.888 272.798 329.993 272.541 330.04C272.285 330.087 272.005 330.075 271.701 330.005C270.208 329.702 268.866 329.678 267.676 329.935C266.486 330.192 265.541 330.67 264.841 331.37C264.165 332.07 263.826 332.957 263.826 334.03H262.041ZM262.076 346C261.516 346 261.085 345.86 260.781 345.58C260.478 345.277 260.326 344.833 260.326 344.25V328.605C260.326 328.045 260.478 327.613 260.781 327.31C261.085 327.007 261.516 326.855 262.076 326.855C262.66 326.855 263.091 327.007 263.371 327.31C263.675 327.59 263.826 328.022 263.826 328.605V344.25C263.826 344.81 263.675 345.242 263.371 345.545C263.091 345.848 262.66 346 262.076 346ZM279.133 339.035C278.619 339.035 278.188 338.872 277.838 338.545C277.511 338.195 277.348 337.763 277.348 337.25V320.45C277.348 319.913 277.511 319.482 277.838 319.155C278.188 318.828 278.619 318.665 279.133 318.665C279.669 318.665 280.101 318.828 280.428 319.155C280.754 319.482 280.918 319.913 280.918 320.45V337.25C280.918 337.763 280.754 338.195 280.428 338.545C280.101 338.872 279.669 339.035 279.133 339.035ZM293.518 346.035C293.004 346.035 292.573 345.872 292.223 345.545C291.896 345.195 291.733 344.763 291.733 344.25V335.64C291.733 334.31 291.488 333.225 290.998 332.385C290.508 331.545 289.843 330.927 289.003 330.53C288.186 330.11 287.241 329.9 286.168 329.9C285.188 329.9 284.301 330.098 283.508 330.495C282.714 330.892 282.084 331.428 281.618 332.105C281.151 332.758 280.918 333.517 280.918 334.38H278.713C278.713 332.91 279.063 331.603 279.763 330.46C280.486 329.293 281.466 328.372 282.703 327.695C283.939 327.018 285.328 326.68 286.868 326.68C288.478 326.68 289.913 327.03 291.173 327.73C292.456 328.407 293.459 329.41 294.183 330.74C294.929 332.07 295.303 333.703 295.303 335.64V344.25C295.303 344.763 295.128 345.195 294.778 345.545C294.451 345.872 294.031 346.035 293.518 346.035ZM279.133 346.035C278.619 346.035 278.188 345.872 277.838 345.545C277.511 345.195 277.348 344.763 277.348 344.25V328.64C277.348 328.103 277.511 327.672 277.838 327.345C278.188 327.018 278.619 326.855 279.133 326.855C279.669 326.855 280.101 327.018 280.428 327.345C280.754 327.672 280.918 328.103 280.918 328.64V344.25C280.918 344.763 280.754 345.195 280.428 345.545C280.101 345.872 279.669 346.035 279.133 346.035ZM309.219 346.14C307.516 346.14 305.988 345.72 304.634 344.88C303.281 344.017 302.208 342.862 301.414 341.415C300.644 339.945 300.259 338.288 300.259 336.445C300.259 334.602 300.679 332.945 301.519 331.475C302.383 330.005 303.538 328.85 304.984 328.01C306.454 327.147 308.099 326.715 309.919 326.715C311.739 326.715 313.373 327.147 314.819 328.01C316.266 328.85 317.409 330.005 318.249 331.475C319.113 332.945 319.544 334.602 319.544 336.445H318.179C318.179 338.288 317.783 339.945 316.989 341.415C316.219 342.862 315.158 344.017 313.804 344.88C312.451 345.72 310.923 346.14 309.219 346.14ZM309.919 342.99C311.109 342.99 312.171 342.71 313.104 342.15C314.038 341.567 314.773 340.785 315.309 339.805C315.846 338.802 316.114 337.682 316.114 336.445C316.114 335.185 315.846 334.065 315.309 333.085C314.773 332.082 314.038 331.3 313.104 330.74C312.171 330.157 311.109 329.865 309.919 329.865C308.753 329.865 307.691 330.157 306.734 330.74C305.801 331.3 305.054 332.082 304.494 333.085C303.958 334.065 303.689 335.185 303.689 336.445C303.689 337.682 303.958 338.802 304.494 339.805C305.054 340.785 305.801 341.567 306.734 342.15C307.691 342.71 308.753 342.99 309.919 342.99ZM317.759 346.035C317.246 346.035 316.814 345.872 316.464 345.545C316.138 345.195 315.974 344.763 315.974 344.25V338.895L316.639 335.185L319.544 336.445V344.25C319.544 344.763 319.369 345.195 319.019 345.545C318.693 345.872 318.273 346.035 317.759 346.035ZM310.059 323.845C309.546 323.845 309.114 323.682 308.764 323.355C308.438 323.005 308.274 322.573 308.274 322.06C308.274 321.57 308.414 321.173 308.694 320.87L312.124 317.44C312.474 317.09 312.894 316.915 313.384 316.915C313.921 316.915 314.353 317.09 314.679 317.44C315.006 317.79 315.169 318.222 315.169 318.735C315.169 318.968 315.134 319.19 315.064 319.4C314.994 319.61 314.866 319.797 314.679 319.96L311.284 323.355C310.958 323.682 310.549 323.845 310.059 323.845ZM326.678 345.335L324.298 343.235L336.198 327.52L338.543 329.62L326.678 345.335ZM325.628 346C324.531 346 323.983 345.452 323.983 344.355C323.983 343.258 324.531 342.71 325.628 342.71H337.563C338.659 342.71 339.208 343.258 339.208 344.355C339.208 345.452 338.659 346 337.563 346H325.628ZM325.278 330.145C324.181 330.145 323.633 329.597 323.633 328.5C323.633 327.403 324.181 326.855 325.278 326.855H337.213C338.309 326.855 338.858 327.403 338.858 328.5C338.858 329.597 338.309 330.145 337.213 330.145H325.278Z" fill="white"/>
<defs>
<filter id="filter0_d_1214_24" x="160" y="90.5027" width="167.552" height="160.021" filterUnits="userSpaceOnUse" color-interpolation-filters="sRGB">
<feFlood flood-opacity="0" result="BackgroundImageFix"/>
<feColorMatrix in="SourceAlpha" type="matrix" values="0 0 0 0 0 0 0 0 0 0 0 0 0 0 0 0 0 0 127 0" result="hardAlpha"/>
<feOffset dy="4"/>
<feGaussianBlur stdDeviation="2"/>
<feComposite in2="hardAlpha" operator="out"/>
<feColorMatrix type="matrix" values="0 0 0 0 0 0 0 0 0 0 0 0 0 0 0 0 0 0 0.25 0"/>
<feBlend mode="normal" in2="BackgroundImageFix" result="effect1_dropShadow_1214_24"/>
<feBlend mode="normal" in="SourceGraphic" in2="effect1_dropShadow_1214_24" result="shape"/>
</filter>
<filter id="filter1_d_1214_24" x="137.717" y="51" width="129.491" height="126.295" filterUnits="userSpaceOnUse" color-interpolation-filters="sRGB">
<feFlood flood-opacity="0" result="BackgroundImageFix"/>
<feColorMatrix in="SourceAlpha" type="matrix" values="0 0 0 0 0 0 0 0 0 0 0 0 0 0 0 0 0 0 127 0" result="hardAlpha"/>
<feOffset dy="4"/>
<feGaussianBlur stdDeviation="2"/>
<feComposite in2="hardAlpha" operator="out"/>
<feColorMatrix type="matrix" values="0 0 0 0 0 0 0 0 0 0 0 0 0 0 0 0 0 0 0.25 0"/>
<feBlend mode="normal" in2="BackgroundImageFix" result="effect1_dropShadow_1214_24"/>
<feBlend mode="normal" in="SourceGraphic" in2="effect1_dropShadow_1214_24" result="shape"/>
</filter>
</defs>
</svg>
